<mxfile host="app.diagrams.net" modified="2021-09-27T11:40:33.218Z" agent="5.0 (X11; Linux aarch64) AppleWebKit/537.36 (KHTML, like Gecko) Chrome/86.0.4240.75 Safari/537.36" etag="04II269cG8suOnIPHAva" version="15.3.5" type="github">
  <diagram name="Page-1" id="c4acf3e9-155e-7222-9cf6-157b1a14988f">
    <mxGraphModel dx="2062" dy="1082" grid="1" gridSize="10" guides="1" tooltips="1" connect="1" arrows="1" fold="1" page="1" pageScale="1" pageWidth="850" pageHeight="1100" background="none" math="0" shadow="0">
      <root>
        <mxCell id="0" />
        <mxCell id="1" parent="0" />
        <mxCell id="FDL3EOboaCRYGbFpYxJP-90" value="" style="whiteSpace=wrap;html=1;aspect=fixed;hachureGap=4;pointerEvents=0;fillColor=none;" vertex="1" parent="1">
          <mxGeometry x="170" y="10" width="950" height="950" as="geometry" />
        </mxCell>
        <mxCell id="FDL3EOboaCRYGbFpYxJP-1" value="&lt;p style=&quot;margin: 0px ; margin-top: 6px ; text-align: center&quot;&gt;&lt;b&gt;Camera&lt;/b&gt;&lt;/p&gt;&lt;hr&gt;&lt;p style=&quot;margin: 0px ; margin-left: 8px&quot;&gt;+ cams: list&lt;br&gt;+ cam_id: id&lt;/p&gt;&lt;p style=&quot;margin: 0px ; margin-left: 8px&quot;&gt;+ site_id : id&lt;/p&gt;&lt;p style=&quot;margin: 0px ; margin-left: 8px&quot;&gt;&lt;span style=&quot;white-space: pre&quot;&gt;	&lt;/span&gt;&lt;span style=&quot;white-space: pre&quot;&gt;	&lt;/span&gt;&lt;br&gt;&lt;/p&gt;" style="align=left;overflow=fill;html=1;dropTarget=0;hachureGap=4;pointerEvents=0;" vertex="1" parent="1">
          <mxGeometry x="220" y="320" width="210" height="400" as="geometry" />
        </mxCell>
        <mxCell id="FDL3EOboaCRYGbFpYxJP-2" value="" style="shape=component;jettyWidth=8;jettyHeight=4;" vertex="1" parent="FDL3EOboaCRYGbFpYxJP-1">
          <mxGeometry x="1" width="20" height="20" relative="1" as="geometry">
            <mxPoint x="-24" y="4" as="offset" />
          </mxGeometry>
        </mxCell>
        <mxCell id="FDL3EOboaCRYGbFpYxJP-3" value="&lt;p style=&quot;margin: 0px ; margin-top: 6px ; text-align: center&quot;&gt;&lt;b&gt;Detector&lt;/b&gt;&lt;/p&gt;&lt;hr&gt;&lt;p style=&quot;margin: 0px ; margin-left: 8px&quot;&gt;+ class_id: id&lt;br&gt;+ confidence: float&amp;nbsp;&lt;/p&gt;" style="align=left;overflow=fill;html=1;dropTarget=0;hachureGap=4;pointerEvents=0;" vertex="1" parent="1">
          <mxGeometry x="910" y="110" width="180" height="220" as="geometry" />
        </mxCell>
        <mxCell id="FDL3EOboaCRYGbFpYxJP-4" value="" style="shape=component;jettyWidth=8;jettyHeight=4;" vertex="1" parent="FDL3EOboaCRYGbFpYxJP-3">
          <mxGeometry x="1" width="20" height="20" relative="1" as="geometry">
            <mxPoint x="-24" y="4" as="offset" />
          </mxGeometry>
        </mxCell>
        <mxCell id="FDL3EOboaCRYGbFpYxJP-5" value="&lt;p style=&quot;margin: 0px ; margin-top: 6px ; text-align: center&quot;&gt;&lt;b&gt;Vehicle Tracker&lt;/b&gt;&lt;/p&gt;&lt;hr&gt;&lt;p style=&quot;margin: 0px ; margin-left: 8px&quot;&gt;+ frame: frame&lt;br&gt;+ detections: box&lt;/p&gt;&lt;p style=&quot;margin: 0px ; margin-left: 8px&quot;&gt;&lt;br&gt;&lt;/p&gt;" style="align=left;overflow=fill;html=1;dropTarget=0;hachureGap=4;pointerEvents=0;" vertex="1" parent="1">
          <mxGeometry x="910" y="370" width="180" height="260" as="geometry" />
        </mxCell>
        <mxCell id="FDL3EOboaCRYGbFpYxJP-6" value="" style="shape=component;jettyWidth=8;jettyHeight=4;" vertex="1" parent="FDL3EOboaCRYGbFpYxJP-5">
          <mxGeometry x="1" width="20" height="20" relative="1" as="geometry">
            <mxPoint x="-24" y="4" as="offset" />
          </mxGeometry>
        </mxCell>
        <mxCell id="FDL3EOboaCRYGbFpYxJP-10" value="&lt;br&gt;&lt;b&gt;: next_frame&lt;/b&gt;" style="html=1;dropTarget=0;hachureGap=4;pointerEvents=0;" vertex="1" parent="1">
          <mxGeometry x="260" y="640" width="140" height="50" as="geometry" />
        </mxCell>
        <mxCell id="FDL3EOboaCRYGbFpYxJP-11" value="" style="shape=module;jettyWidth=8;jettyHeight=4;" vertex="1" parent="FDL3EOboaCRYGbFpYxJP-10">
          <mxGeometry x="1" width="20" height="20" relative="1" as="geometry">
            <mxPoint x="-27" y="7" as="offset" />
          </mxGeometry>
        </mxCell>
        <mxCell id="FDL3EOboaCRYGbFpYxJP-16" value="&lt;br&gt;&lt;b&gt;: stop_thread&lt;/b&gt;" style="html=1;dropTarget=0;hachureGap=4;pointerEvents=0;" vertex="1" parent="1">
          <mxGeometry x="260" y="550" width="140" height="50" as="geometry" />
        </mxCell>
        <mxCell id="FDL3EOboaCRYGbFpYxJP-17" value="" style="shape=module;jettyWidth=8;jettyHeight=4;" vertex="1" parent="FDL3EOboaCRYGbFpYxJP-16">
          <mxGeometry x="1" width="20" height="20" relative="1" as="geometry">
            <mxPoint x="-27" y="7" as="offset" />
          </mxGeometry>
        </mxCell>
        <mxCell id="FDL3EOboaCRYGbFpYxJP-60" style="edgeStyle=none;curved=1;rounded=0;orthogonalLoop=1;jettySize=auto;html=1;entryX=0;entryY=0.5;entryDx=0;entryDy=0;entryPerimeter=0;endArrow=open;startSize=14;endSize=14;sourcePerimeterSpacing=8;targetPerimeterSpacing=8;" edge="1" parent="1" source="FDL3EOboaCRYGbFpYxJP-21" target="FDL3EOboaCRYGbFpYxJP-68">
          <mxGeometry relative="1" as="geometry">
            <mxPoint x="430" y="485" as="targetPoint" />
          </mxGeometry>
        </mxCell>
        <mxCell id="FDL3EOboaCRYGbFpYxJP-21" value="&lt;br&gt;&lt;b&gt;buffer&lt;/b&gt;" style="html=1;dropTarget=0;hachureGap=4;pointerEvents=0;" vertex="1" parent="1">
          <mxGeometry x="260" y="460" width="140" height="50" as="geometry" />
        </mxCell>
        <mxCell id="FDL3EOboaCRYGbFpYxJP-22" value="" style="shape=module;jettyWidth=8;jettyHeight=4;" vertex="1" parent="FDL3EOboaCRYGbFpYxJP-21">
          <mxGeometry x="1" width="20" height="20" relative="1" as="geometry">
            <mxPoint x="-27" y="7" as="offset" />
          </mxGeometry>
        </mxCell>
        <mxCell id="FDL3EOboaCRYGbFpYxJP-76" style="edgeStyle=none;curved=1;rounded=0;orthogonalLoop=1;jettySize=auto;html=1;entryX=0.376;entryY=-0.012;entryDx=0;entryDy=0;entryPerimeter=0;endArrow=open;startSize=14;endSize=14;sourcePerimeterSpacing=8;targetPerimeterSpacing=8;" edge="1" parent="1" source="FDL3EOboaCRYGbFpYxJP-23" target="FDL3EOboaCRYGbFpYxJP-1">
          <mxGeometry relative="1" as="geometry" />
        </mxCell>
        <mxCell id="FDL3EOboaCRYGbFpYxJP-23" value="&lt;b&gt;Video Input&lt;/b&gt;" style="rounded=1;whiteSpace=wrap;html=1;hachureGap=4;pointerEvents=0;" vertex="1" parent="1">
          <mxGeometry x="240" y="110" width="120" height="60" as="geometry" />
        </mxCell>
        <mxCell id="FDL3EOboaCRYGbFpYxJP-82" style="edgeStyle=none;curved=1;rounded=0;orthogonalLoop=1;jettySize=auto;html=1;entryX=1;entryY=0.5;entryDx=0;entryDy=0;entryPerimeter=0;endArrow=open;startSize=14;endSize=14;sourcePerimeterSpacing=8;targetPerimeterSpacing=8;" edge="1" parent="1" source="FDL3EOboaCRYGbFpYxJP-42" target="FDL3EOboaCRYGbFpYxJP-47">
          <mxGeometry relative="1" as="geometry" />
        </mxCell>
        <mxCell id="FDL3EOboaCRYGbFpYxJP-89" style="edgeStyle=elbowEdgeStyle;rounded=0;orthogonalLoop=1;jettySize=auto;elbow=vertical;html=1;entryX=0.579;entryY=0;entryDx=0;entryDy=0;entryPerimeter=0;endArrow=open;startSize=14;endSize=14;sourcePerimeterSpacing=8;targetPerimeterSpacing=8;" edge="1" parent="1" source="FDL3EOboaCRYGbFpYxJP-42" target="FDL3EOboaCRYGbFpYxJP-88">
          <mxGeometry relative="1" as="geometry" />
        </mxCell>
        <mxCell id="FDL3EOboaCRYGbFpYxJP-42" value="«interface»&lt;br&gt;&lt;b&gt;main&lt;/b&gt;" style="html=1;hachureGap=4;pointerEvents=0;" vertex="1" parent="1">
          <mxGeometry x="560" y="460" width="110" height="50" as="geometry" />
        </mxCell>
        <mxCell id="FDL3EOboaCRYGbFpYxJP-85" style="edgeStyle=elbowEdgeStyle;rounded=0;orthogonalLoop=1;jettySize=auto;html=1;entryX=0;entryY=0.545;entryDx=0;entryDy=0;entryPerimeter=0;endArrow=open;startSize=14;endSize=14;sourcePerimeterSpacing=8;targetPerimeterSpacing=8;" edge="1" parent="1" source="FDL3EOboaCRYGbFpYxJP-47" target="FDL3EOboaCRYGbFpYxJP-3">
          <mxGeometry relative="1" as="geometry" />
        </mxCell>
        <mxCell id="FDL3EOboaCRYGbFpYxJP-47" value="" style="shape=requiredInterface;html=1;verticalLabelPosition=bottom;hachureGap=4;pointerEvents=0;direction=west;rotation=0;" vertex="1" parent="1">
          <mxGeometry x="760" y="475" width="10" height="20" as="geometry" />
        </mxCell>
        <mxCell id="FDL3EOboaCRYGbFpYxJP-69" style="edgeStyle=none;curved=1;rounded=0;orthogonalLoop=1;jettySize=auto;html=1;endArrow=open;startSize=14;endSize=14;sourcePerimeterSpacing=8;targetPerimeterSpacing=8;entryX=0;entryY=0.5;entryDx=0;entryDy=0;" edge="1" parent="1" source="FDL3EOboaCRYGbFpYxJP-68" target="FDL3EOboaCRYGbFpYxJP-42">
          <mxGeometry relative="1" as="geometry">
            <mxPoint x="540" y="485" as="targetPoint" />
          </mxGeometry>
        </mxCell>
        <mxCell id="FDL3EOboaCRYGbFpYxJP-68" value="" style="shape=providedRequiredInterface;html=1;verticalLabelPosition=bottom;hachureGap=4;pointerEvents=0;" vertex="1" parent="1">
          <mxGeometry x="470" y="475" width="20" height="20" as="geometry" />
        </mxCell>
        <mxCell id="FDL3EOboaCRYGbFpYxJP-70" value="&lt;br&gt;&lt;b&gt;: process_frame&lt;/b&gt;" style="html=1;dropTarget=0;hachureGap=4;pointerEvents=0;" vertex="1" parent="1">
          <mxGeometry x="930" y="200" width="140" height="50" as="geometry" />
        </mxCell>
        <mxCell id="FDL3EOboaCRYGbFpYxJP-71" value="" style="shape=module;jettyWidth=8;jettyHeight=4;" vertex="1" parent="FDL3EOboaCRYGbFpYxJP-70">
          <mxGeometry x="1" width="20" height="20" relative="1" as="geometry">
            <mxPoint x="-27" y="7" as="offset" />
          </mxGeometry>
        </mxCell>
        <mxCell id="FDL3EOboaCRYGbFpYxJP-72" value="&lt;br&gt;&lt;b&gt;: stop_thread&lt;/b&gt;" style="html=1;dropTarget=0;hachureGap=4;pointerEvents=0;" vertex="1" parent="1">
          <mxGeometry x="930" y="260" width="140" height="50" as="geometry" />
        </mxCell>
        <mxCell id="FDL3EOboaCRYGbFpYxJP-73" value="" style="shape=module;jettyWidth=8;jettyHeight=4;" vertex="1" parent="FDL3EOboaCRYGbFpYxJP-72">
          <mxGeometry x="1" width="20" height="20" relative="1" as="geometry">
            <mxPoint x="-27" y="7" as="offset" />
          </mxGeometry>
        </mxCell>
        <mxCell id="FDL3EOboaCRYGbFpYxJP-77" value="&lt;br&gt;&lt;b&gt;: track&lt;/b&gt;" style="html=1;dropTarget=0;hachureGap=4;pointerEvents=0;" vertex="1" parent="1">
          <mxGeometry x="930" y="470" width="140" height="50" as="geometry" />
        </mxCell>
        <mxCell id="FDL3EOboaCRYGbFpYxJP-78" value="" style="shape=module;jettyWidth=8;jettyHeight=4;" vertex="1" parent="FDL3EOboaCRYGbFpYxJP-77">
          <mxGeometry x="1" width="20" height="20" relative="1" as="geometry">
            <mxPoint x="-27" y="7" as="offset" />
          </mxGeometry>
        </mxCell>
        <mxCell id="FDL3EOboaCRYGbFpYxJP-79" value="&lt;br&gt;&lt;b&gt;: frames&lt;/b&gt;" style="html=1;dropTarget=0;hachureGap=4;pointerEvents=0;" vertex="1" parent="1">
          <mxGeometry x="930" y="540" width="140" height="50" as="geometry" />
        </mxCell>
        <mxCell id="FDL3EOboaCRYGbFpYxJP-80" value="" style="shape=module;jettyWidth=8;jettyHeight=4;" vertex="1" parent="FDL3EOboaCRYGbFpYxJP-79">
          <mxGeometry x="1" width="20" height="20" relative="1" as="geometry">
            <mxPoint x="-27" y="7" as="offset" />
          </mxGeometry>
        </mxCell>
        <mxCell id="FDL3EOboaCRYGbFpYxJP-83" value="&lt;b&gt;Person Tracker&lt;/b&gt;" style="html=1;dropTarget=0;hachureGap=4;pointerEvents=0;" vertex="1" parent="1">
          <mxGeometry x="910" y="670" width="180" height="90" as="geometry" />
        </mxCell>
        <mxCell id="FDL3EOboaCRYGbFpYxJP-84" value="" style="shape=module;jettyWidth=8;jettyHeight=4;" vertex="1" parent="FDL3EOboaCRYGbFpYxJP-83">
          <mxGeometry x="1" width="20" height="20" relative="1" as="geometry">
            <mxPoint x="-27" y="7" as="offset" />
          </mxGeometry>
        </mxCell>
        <mxCell id="FDL3EOboaCRYGbFpYxJP-86" style="edgeStyle=elbowEdgeStyle;rounded=0;orthogonalLoop=1;jettySize=auto;html=1;endArrow=open;startSize=14;endSize=14;sourcePerimeterSpacing=8;targetPerimeterSpacing=8;exitX=0;exitY=0.5;exitDx=0;exitDy=0;exitPerimeter=0;" edge="1" parent="1" source="FDL3EOboaCRYGbFpYxJP-47">
          <mxGeometry relative="1" as="geometry">
            <mxPoint x="780" y="490" as="sourcePoint" />
            <mxPoint x="910" y="700" as="targetPoint" />
          </mxGeometry>
        </mxCell>
        <mxCell id="FDL3EOboaCRYGbFpYxJP-87" value="" style="endArrow=classic;html=1;startSize=14;endSize=14;sourcePerimeterSpacing=8;targetPerimeterSpacing=8;exitX=1;exitY=0.5;exitDx=0;exitDy=0;exitPerimeter=0;" edge="1" parent="1" source="FDL3EOboaCRYGbFpYxJP-47">
          <mxGeometry width="50" height="50" relative="1" as="geometry">
            <mxPoint x="870" y="480" as="sourcePoint" />
            <mxPoint x="907" y="487" as="targetPoint" />
          </mxGeometry>
        </mxCell>
        <mxCell id="FDL3EOboaCRYGbFpYxJP-88" value="&lt;b&gt;Database&lt;/b&gt;" style="shape=cylinder3;whiteSpace=wrap;html=1;boundedLbl=1;backgroundOutline=1;size=15;hachureGap=4;pointerEvents=0;" vertex="1" parent="1">
          <mxGeometry x="560" y="700" width="95" height="150" as="geometry" />
        </mxCell>
        <mxCell id="FDL3EOboaCRYGbFpYxJP-94" value="&lt;font style=&quot;font-size: 19px&quot;&gt;&lt;b&gt;Object Based Video Summarization&lt;/b&gt;&lt;/font&gt;" style="text;html=1;align=center;verticalAlign=middle;resizable=0;points=[];autosize=1;strokeColor=none;fillColor=none;" vertex="1" parent="1">
          <mxGeometry x="500" y="40" width="340" height="20" as="geometry" />
        </mxCell>
      </root>
    </mxGraphModel>
  </diagram>
</mxfile>
